<svg width="66" height="15" viewBox="0 0 66 15" fill="none" xmlns="http://www.w3.org/2000/svg">
<path d="M6.482 10.9999L2.926 6.64595V10.9999H0.966V1.22795H2.926V5.60995L6.482 1.22795H8.848L4.816 6.07195L8.96 10.9999H6.482Z" fill="white"/>
<path d="M9.7452 7.09395C9.7452 6.30995 9.8992 5.61461 10.2072 5.00795C10.5245 4.40128 10.9492 3.93461 11.4812 3.60795C12.0225 3.28128 12.6245 3.11795 13.2872 3.11795C13.8659 3.11795 14.3699 3.23461 14.7992 3.46795C15.2379 3.70128 15.5879 3.99528 15.8492 4.34995V3.24395H17.8232V10.9999H15.8492V9.86595C15.5972 10.2299 15.2472 10.5333 14.7992 10.7759C14.3605 11.0093 13.8519 11.1259 13.2732 11.1259C12.6199 11.1259 12.0225 10.9579 11.4812 10.6219C10.9492 10.2859 10.5245 9.81461 10.2072 9.20795C9.8992 8.59195 9.7452 7.88728 9.7452 7.09395ZM15.8492 7.12195C15.8492 6.64595 15.7559 6.23995 15.5692 5.90395C15.3825 5.55861 15.1305 5.29728 14.8132 5.11995C14.4959 4.93328 14.1552 4.83995 13.7912 4.83995C13.4272 4.83995 13.0912 4.92861 12.7832 5.10595C12.4752 5.28328 12.2232 5.54461 12.0272 5.88995C11.8405 6.22595 11.7472 6.62728 11.7472 7.09395C11.7472 7.56061 11.8405 7.97128 12.0272 8.32595C12.2232 8.67128 12.4752 8.93728 12.7832 9.12395C13.1005 9.31061 13.4365 9.40395 13.7912 9.40395C14.1552 9.40395 14.4959 9.31528 14.8132 9.13795C15.1305 8.95128 15.3825 8.68995 15.5692 8.35395C15.7559 8.00861 15.8492 7.59795 15.8492 7.12195Z" fill="white"/>
<path d="M19.2335 7.09395C19.2335 6.30995 19.3875 5.61461 19.6955 5.00795C20.0128 4.40128 20.4375 3.93461 20.9695 3.60795C21.5108 3.28128 22.1128 3.11795 22.7755 3.11795C23.3542 3.11795 23.8582 3.23461 24.2875 3.46795C24.7262 3.70128 25.0762 3.99528 25.3375 4.34995V3.24395H27.3115V10.9999H25.3375V9.86595C25.0855 10.2299 24.7355 10.5333 24.2875 10.7759C23.8488 11.0093 23.3402 11.1259 22.7615 11.1259C22.1082 11.1259 21.5108 10.9579 20.9695 10.6219C20.4375 10.2859 20.0128 9.81461 19.6955 9.20795C19.3875 8.59195 19.2335 7.88728 19.2335 7.09395ZM25.3375 7.12195C25.3375 6.64595 25.2442 6.23995 25.0575 5.90395C24.8708 5.55861 24.6188 5.29728 24.3015 5.11995C23.9842 4.93328 23.6435 4.83995 23.2795 4.83995C22.9155 4.83995 22.5795 4.92861 22.2715 5.10595C21.9635 5.28328 21.7115 5.54461 21.5155 5.88995C21.3288 6.22595 21.2355 6.62728 21.2355 7.09395C21.2355 7.56061 21.3288 7.97128 21.5155 8.32595C21.7115 8.67128 21.9635 8.93728 22.2715 9.12395C22.5888 9.31061 22.9248 9.40395 23.2795 9.40395C23.6435 9.40395 23.9842 9.31528 24.3015 9.13795C24.6188 8.95128 24.8708 8.68995 25.0575 8.35395C25.2442 8.00861 25.3375 7.59795 25.3375 7.12195Z" fill="white"/>
<path d="M31.1858 4.36395C31.4378 4.00928 31.7831 3.71528 32.2218 3.48195C32.6698 3.23928 33.1784 3.11795 33.7478 3.11795C34.4104 3.11795 35.0078 3.28128 35.5398 3.60795C36.0811 3.93461 36.5058 4.40128 36.8138 5.00795C37.1311 5.60528 37.2898 6.30061 37.2898 7.09395C37.2898 7.88728 37.1311 8.59195 36.8138 9.20795C36.5058 9.81461 36.0811 10.2859 35.5398 10.6219C35.0078 10.9579 34.4104 11.1259 33.7478 11.1259C33.1784 11.1259 32.6744 11.0093 32.2358 10.7759C31.8064 10.5426 31.4564 10.2486 31.1858 9.89395V14.6959H29.2258V3.24395H31.1858V4.36395ZM35.2878 7.09395C35.2878 6.62728 35.1898 6.22595 34.9938 5.88995C34.8071 5.54461 34.5551 5.28328 34.2378 5.10595C33.9298 4.92861 33.5938 4.83995 33.2298 4.83995C32.8751 4.83995 32.5391 4.93328 32.2218 5.11995C31.9138 5.29728 31.6618 5.55861 31.4658 5.90395C31.2791 6.24928 31.1858 6.65528 31.1858 7.12195C31.1858 7.58861 31.2791 7.99461 31.4658 8.33995C31.6618 8.68528 31.9138 8.95128 32.2218 9.13795C32.5391 9.31528 32.8751 9.40395 33.2298 9.40395C33.5938 9.40395 33.9298 9.31061 34.2378 9.12395C34.5551 8.93728 34.8071 8.67128 34.9938 8.32595C35.1898 7.98061 35.2878 7.56995 35.2878 7.09395Z" fill="white"/>
<path d="M42.158 11.1259C41.4114 11.1259 40.7394 10.9626 40.142 10.6359C39.5447 10.2999 39.0734 9.82861 38.728 9.22195C38.392 8.61528 38.224 7.91528 38.224 7.12195C38.224 6.32861 38.3967 5.62861 38.742 5.02195C39.0967 4.41528 39.5774 3.94861 40.184 3.62195C40.7907 3.28595 41.4674 3.11795 42.214 3.11795C42.9607 3.11795 43.6374 3.28595 44.244 3.62195C44.8507 3.94861 45.3267 4.41528 45.672 5.02195C46.0267 5.62861 46.204 6.32861 46.204 7.12195C46.204 7.91528 46.022 8.61528 45.658 9.22195C45.3034 9.82861 44.818 10.2999 44.202 10.6359C43.5954 10.9626 42.914 11.1259 42.158 11.1259ZM42.158 9.41795C42.5127 9.41795 42.844 9.33395 43.152 9.16595C43.4694 8.98861 43.7214 8.72728 43.908 8.38195C44.0947 8.03661 44.188 7.61661 44.188 7.12195C44.188 6.38461 43.992 5.81995 43.6 5.42795C43.2174 5.02661 42.746 4.82595 42.186 4.82595C41.626 4.82595 41.1547 5.02661 40.772 5.42795C40.3987 5.81995 40.212 6.38461 40.212 7.12195C40.212 7.85928 40.394 8.42861 40.758 8.82995C41.1314 9.22195 41.598 9.41795 42.158 9.41795Z" fill="white"/>
<path d="M48.5098 11.0979C48.1551 11.0979 47.8611 10.9906 47.6278 10.7759C47.4038 10.5519 47.2918 10.2766 47.2918 9.94995C47.2918 9.62328 47.4038 9.35261 47.6278 9.13795C47.8611 8.91395 48.1551 8.80195 48.5098 8.80195C48.8551 8.80195 49.1398 8.91395 49.3638 9.13795C49.5878 9.35261 49.6998 9.62328 49.6998 9.94995C49.6998 10.2766 49.5878 10.5519 49.3638 10.7759C49.1398 10.9906 48.8551 11.0979 48.5098 11.0979Z" fill="#14B8A6"/>
<path d="M56.9065 1.24195V2.27795H52.6645V5.56795H56.1085V6.60395H52.6645V10.9999H51.3905V1.24195H56.9065Z" fill="white"/>
<path d="M59.1032 2.08195C58.8605 2.08195 58.6552 1.99795 58.4872 1.82995C58.3192 1.66195 58.2352 1.45661 58.2352 1.21395C58.2352 0.971281 58.3192 0.765947 58.4872 0.597947C58.6552 0.429947 58.8605 0.345947 59.1032 0.345947C59.3365 0.345947 59.5325 0.429947 59.6912 0.597947C59.8592 0.765947 59.9432 0.971281 59.9432 1.21395C59.9432 1.45661 59.8592 1.66195 59.6912 1.82995C59.5325 1.99795 59.3365 2.08195 59.1032 2.08195ZM59.7192 3.32795V10.9999H58.4452V3.32795H59.7192Z" fill="white"/>
<path d="M63.4445 4.37795V8.89995C63.4445 9.27328 63.5238 9.53928 63.6825 9.69795C63.8412 9.84728 64.1165 9.92195 64.5085 9.92195H65.4465V10.9999H64.2985C63.5892 10.9999 63.0572 10.8366 62.7025 10.5099C62.3478 10.1833 62.1705 9.64661 62.1705 8.89995V4.37795H61.1765V3.32795H62.1705V1.39595H63.4445V3.32795H65.4465V4.37795H63.4445Z" fill="white"/>
</svg>
